<?xml version="1.0" encoding="UTF-8"?>
<svg id="Layer_1" data-name="Layer 1" xmlns="http://www.w3.org/2000/svg" viewBox="0 0 198.986 378.524">
  <defs>
    <style>
      .cls-1 {
        fill: #bbe2a8;
      }

      .cls-2 {
        fill: #c0cfa0;
      }

      .cls-3 {
        fill: #cffcb8;
      }
    </style>
  </defs>
  <path class="cls-3" d="M99.493,306.317V.077c14.21,18.11,99.14,129.81,99.49,212.48,.63,152.73-92.41,98.15-99.49,93.76Z"/>
  <path class="cls-1" d="M99.493,306.24V0C85.283,18.11,.353,129.81,.003,212.48c-.63,152.73,92.41,98.15,99.49,93.76Z"/>
  <g>
    <g>
      <polygon class="cls-2" points="102.228 181.257 135.904 119.49 97.405 178.372 102.228 181.257"/>
      <polygon class="cls-2" points="103.228 236.257 136.904 174.49 98.405 233.372 103.228 236.257"/>
      <polygon class="cls-2" points="104.228 293.257 137.904 231.49 99.405 290.372 104.228 293.257"/>
    </g>
    <polygon class="cls-2" points="107.491 378.524 91.491 378.524 99.491 49.524 107.491 378.524"/>
    <g>
      <polygon class="cls-2" points="96.355 181.488 62.678 119.721 101.177 178.604 96.355 181.488"/>
      <polygon class="cls-2" points="95.355 236.488 61.678 174.721 100.177 233.604 95.355 236.488"/>
      <polygon class="cls-2" points="94.355 293.488 60.678 231.721 99.177 290.604 94.355 293.488"/>
    </g>
  </g>
</svg>